# xmcd
#
# Track frame offsets: 
#        150
#        11654
#        24182
#        36136
#        55223
#        73688
#        89442
#        103579
#        120350
#        133267
#        151805
#
# Disc length: 2236 seconds
#
# Revision: 0
# Processed by: cddbd v1.5.2PL0 Copyright (c) Steve Scherf et al.
# Submitted via: ExactAudioCopy v0.99pb5
#
DISCID=8608ba0b
DTITLE=Jason Edwards - doldrums
DYEAR=2009
DGENRE=Rock
TTITLE0=mystic fandango
TTITLE1=sun melt
TTITLE2=john brown
TTITLE3=oo
TTITLE4=we were all aglow
TTITLE5=holydoom
TTITLE6=oghulum
TTITLE7=no name
TTITLE8=bogie man
TTITLE9=doldrums
TTITLE10=tambourine
EXTD=
EXTT0=
EXTT1=
EXTT2=
EXTT3=
EXTT4=
EXTT5=
EXTT6=
EXTT7=
EXTT8=
EXTT9=
EXTT10=
PLAYORDER=
